<svg xmlns="http://www.w3.org/2000/svg" viewBox="0 0 100 100" role="img" aria-label="TacTic"><rect width="100" height="100" rx="21" fill="#F7F4F3"/><title>TacTic</title>
  <circle cx="50" cy="50" r="6" fill="#80A2AF"/>
  <circle cx="50" cy="50" r="8" fill="none" stroke="#8C8C8C" stroke-width="1.1"/>
  <g stroke-width="1.1" stroke-linecap="round">
    <line x1="50.00" y1="39.00" x2="50.00" y2="18.00" stroke="#CE8090"/>
    <line x1="57.78" y1="42.22" x2="72.63" y2="27.37" stroke="#7EA597"/>
    <line x1="61.00" y1="50.00" x2="82.00" y2="50.00" stroke="#D7AD62"/>
    <line x1="50.00" y1="61.00" x2="50.00" y2="82.00" stroke="#A597C1"/>
    <line x1="42.22" y1="57.78" x2="27.37" y2="72.63" stroke="#CE8090"/>
    <line x1="39.00" y1="50.00" x2="18.00" y2="50.00" stroke="#7EA597"/>
    <line x1="42.22" y1="42.22" x2="27.37" y2="27.37" stroke="#D7AD62"/>
  </g>
  <g stroke="#8C8C8C" stroke-width="0.8" stroke-linecap="round">
    <line x1="54.21" y1="39.84" x2="59.57" y2="26.90"/>
    <line x1="60.16" y1="45.79" x2="73.10" y2="40.43"/>
    <line x1="60.16" y1="54.21" x2="73.10" y2="59.57"/>
    <line x1="54.21" y1="60.16" x2="59.57" y2="73.10"/>
    <line x1="45.79" y1="60.16" x2="40.43" y2="73.10"/>
    <line x1="39.84" y1="54.21" x2="26.90" y2="59.57"/>
    <line x1="39.84" y1="45.79" x2="26.90" y2="40.43"/>
    <line x1="45.79" y1="39.84" x2="40.43" y2="26.90"/>
  </g>
  <line x1="74.04" y1="74.04" x2="56.08" y2="56.08"
        stroke="#8C8C8C" stroke-width="1.1" stroke-linecap="round"/>
</svg>